<?xml version="1.0" standalone="no"?>
<!DOCTYPE svg PUBLIC "-//W3C//DTD SVG 20010904//EN"
 "http://www.w3.org/TR/2001/REC-SVG-20010904/DTD/svg10.dtd">
<svg version="1.0" xmlns="http://www.w3.org/2000/svg"
 width="500.000000pt" height="500.000000pt" viewBox="0 0 500.000000 500.000000"
 preserveAspectRatio="xMidYMid meet">
<metadata>
Created by potrace 1.14, written by Peter Selinger 2001-2017
</metadata>
<g transform="translate(0.000000,500.000000) scale(0.100000,-0.100000)"
fill="#000000" stroke="none">
<path d="M1225 3552 c-116 -71 -421 -494 -701 -973 -37 -62 -42 -68 -94 -84
-164 -50 -369 -134 -402 -163 -39 -33 -30 -149 12 -172 32 -17 56 -12 137 30
43 21 99 48 125 59 l47 20 -62 -127 c-139 -284 -229 -509 -230 -573 -1 -53 27
-100 73 -124 71 -37 110 -5 145 119 42 144 126 346 267 637 l80 167 145 42
c79 23 146 40 147 39 2 -2 -9 -59 -25 -126 -30 -136 -38 -196 -40 -295 -3
-131 63 -203 148 -161 41 20 47 35 57 139 6 71 33 290 41 334 3 14 10 52 16
86 6 33 13 65 17 71 7 11 242 66 242 57 0 -3 -25 -58 -55 -124 -114 -250 -146
-387 -106 -460 51 -95 168 -49 290 114 29 39 55 73 57 75 2 2 0 -10 -5 -26
-12 -41 -5 -113 11 -130 8 -7 27 -16 42 -19 38 -7 115 31 121 59 2 12 9 49 16
82 17 90 64 200 125 292 74 112 116 145 222 178 98 31 157 64 164 93 13 47
-51 112 -108 112 -37 0 -62 -16 -127 -79 -55 -54 -57 -55 -46 -23 9 27 8 37
-5 57 -9 14 -22 25 -29 26 -6 0 -22 2 -35 3 -31 4 -98 -28 -112 -53 -6 -12 -8
-21 -6 -21 7 0 -42 -113 -76 -177 -99 -182 -272 -393 -299 -366 -18 18 9 82
173 404 16 33 26 66 24 80 -3 13 -5 26 -5 29 -1 3 -14 13 -29 22 -35 21 -65
19 -301 -18 -52 -8 -96 -12 -99 -10 -6 6 24 138 58 256 15 52 55 166 89 253
34 88 64 174 65 192 3 25 -6 50 -35 97 -22 35 -39 68 -39 74 0 12 -22 24 -43
24 -7 0 -26 -8 -42 -18z m-96 -384 c-31 -77 -101 -297 -134 -418 -16 -58 -31
-109 -35 -113 -4 -4 -18 -10 -31 -12 -13 -3 -59 -13 -101 -24 -43 -10 -78 -14
-78 -10 0 28 379 629 397 629 1 0 -7 -24 -18 -52z"/>
<path d="M3284 3532 c-118 -95 -370 -444 -617 -855 l-95 -159 -123 -42 c-318
-110 -360 -139 -353 -236 3 -48 37 -90 72 -90 9 0 71 27 136 60 66 33 121 58
123 56 2 -2 -22 -57 -54 -122 -67 -136 -134 -287 -190 -424 -62 -154 -51 -235
39 -276 71 -32 101 -7 138 117 22 75 92 259 137 359 156 350 210 452 243 461
14 4 78 23 143 42 l117 35 -6 -37 c-4 -20 -8 -45 -11 -56 -64 -313 -66 -416
-10 -480 39 -45 109 -41 142 8 8 13 17 46 19 73 4 49 34 287 41 333 2 13 8 45
12 70 4 25 8 48 8 51 1 3 5 24 9 47 8 42 8 42 64 53 93 19 131 32 149 52 17
19 23 81 9 95 -4 4 -46 8 -92 7 -73 -1 -84 1 -80 15 3 9 14 57 26 106 39 166
77 283 125 390 30 67 65 178 65 207 0 16 -10 44 -22 61 -13 17 -32 49 -44 72
-28 55 -56 57 -120 7z m-87 -409 c-19 -49 -60 -179 -92 -289 -32 -109 -59
-200 -60 -201 -3 -5 -207 -45 -210 -41 -9 10 383 633 393 624 1 -2 -13 -43
-31 -93z"/>
<path d="M4230 3163 c-91 -34 -134 -150 -75 -200 68 -59 196 12 210 115 5 45
-40 92 -87 91 -18 0 -40 -3 -48 -6z"/>
<path d="M1618 3058 c-50 -29 -83 -92 -74 -140 17 -92 140 -89 210 5 29 40 28
113 -3 138 -31 25 -87 24 -133 -3z"/>
<path d="M4630 2911 c-92 -28 -219 -155 -404 -401 -140 -187 -196 -250 -223
-250 -11 0 -13 7 -8 33 9 40 15 51 131 263 61 110 94 181 94 200 0 97 -169 93
-201 -3 -6 -21 -53 -121 -104 -223 -128 -256 -159 -359 -132 -445 18 -60 86
-77 158 -39 35 18 120 100 174 169 21 28 42 53 45 58 3 4 7 -10 7 -31 1 -81
55 -137 128 -136 55 2 98 26 172 97 54 51 63 57 68 41 17 -55 31 -69 76 -78
39 -7 52 -5 100 17 88 42 203 166 263 285 29 57 32 75 14 90 -22 17 -53 -4
-92 -63 -44 -65 -111 -135 -131 -135 -21 0 -34 30 -25 61 11 39 63 145 110
225 22 38 40 78 40 90 0 24 -22 46 -66 63 -21 8 -37 25 -49 51 -28 63 -74 82
-145 61z m56 -190 c-9 -57 -129 -279 -184 -341 -95 -107 -139 -127 -135 -62 4
76 137 299 234 394 68 67 95 70 85 9z"/>
<path d="M3689 2752 c-81 -10 -199 -123 -239 -229 -40 -105 -25 -233 34 -282
8 -7 20 -28 26 -47 14 -43 3 -61 -45 -70 -39 -7 -77 11 -131 61 -21 20 -44 34
-52 33 -18 -4 -46 -52 -63 -108 -11 -37 -10 -46 6 -77 48 -88 188 -115 312
-58 105 47 168 135 176 245 5 59 -7 94 -55 157 -21 29 -43 64 -48 78 -23 61 0
138 46 155 47 18 68 12 105 -31 28 -33 40 -40 57 -35 29 10 62 58 69 101 12
74 -77 122 -198 107z"/>
</g>
</svg>
